<svg width="100" height="92" viewBox="0 0 100 92" fill="none" xmlns="http://www.w3.org/2000/svg">
<path d="M79.1667 0H20.8333C15.31 0.00661607 10.0148 2.20368 6.10925 6.10925C2.20367 10.0148 0.00661607 15.31 0 20.8333L0 54.1667C0.00661607 59.69 2.20367 64.9852 6.10925 68.8908C10.0148 72.7963 15.31 74.9934 20.8333 75H45.8333V83.3333H29.1667C28.0616 83.3333 27.0018 83.7723 26.2204 84.5537C25.439 85.3351 25 86.3949 25 87.5C25 88.6051 25.439 89.6649 26.2204 90.4463C27.0018 91.2277 28.0616 91.6667 29.1667 91.6667H70.8333C71.9384 91.6667 72.9982 91.2277 73.7796 90.4463C74.561 89.6649 75 88.6051 75 87.5C75 86.3949 74.561 85.3351 73.7796 84.5537C72.9982 83.7723 71.9384 83.3333 70.8333 83.3333H54.1667V75H79.1667C84.69 74.9934 89.9852 72.7963 93.8908 68.8908C97.7963 64.9852 99.9934 59.69 100 54.1667V20.8333C99.9934 15.31 97.7963 10.0148 93.8908 6.10925C89.9852 2.20368 84.69 0.00661607 79.1667 0V0ZM20.8333 8.33333H79.1667C82.4819 8.33333 85.6613 9.65029 88.0055 11.9945C90.3497 14.3387 91.6667 17.5181 91.6667 20.8333V50H8.33333V20.8333C8.33333 17.5181 9.65029 14.3387 11.9945 11.9945C14.3387 9.65029 17.5181 8.33333 20.8333 8.33333V8.33333ZM79.1667 66.6667H20.8333C18.2572 66.656 15.7474 65.8497 13.6471 64.358C11.5468 62.8663 9.95868 60.7621 9.1 58.3333H90.9C90.0413 60.7621 88.4532 62.8663 86.3529 64.358C84.2526 65.8497 81.7427 66.656 79.1667 66.6667Z" fill="#2E1445"/>
</svg>
