<svg width="30" height="30" viewBox="0 0 30 30" fill="none" xmlns="http://www.w3.org/2000/svg">
<path d="M29.6337 27.8662L22.1725 20.405C24.2058 17.9182 25.2054 14.7451 24.9648 11.542C24.7241 8.33879 23.2615 5.35066 20.8795 3.19565C18.4974 1.04064 15.3782 -0.116386 12.167 -0.0360966C8.95584 0.0441932 5.89835 1.35565 3.62699 3.62701C1.35563 5.89838 0.0441664 8.95586 -0.0361233 12.167C-0.116413 15.3782 1.04061 18.4974 3.19562 20.8795C5.35064 23.2615 8.33876 24.7241 11.5419 24.9648C14.7451 25.2055 17.9182 24.2058 20.405 22.1725L27.8662 29.6338C28.102 29.8614 28.4177 29.9874 28.7455 29.9846C29.0732 29.9817 29.3867 29.8503 29.6185 29.6185C29.8503 29.3868 29.9817 29.0732 29.9846 28.7455C29.9874 28.4178 29.8614 28.102 29.6337 27.8662ZM12.5 22.5C10.5222 22.5 8.58876 21.9135 6.94427 20.8147C5.29978 19.7159 4.01805 18.1541 3.26118 16.3268C2.5043 14.4996 2.30627 12.4889 2.69212 10.5491C3.07797 8.60928 4.03038 6.82746 5.4289 5.42893C6.82743 4.03041 8.60926 3.078 10.5491 2.69215C12.4889 2.30629 14.4995 2.50433 16.3268 3.2612C18.1541 4.01808 19.7159 5.2998 20.8147 6.9443C21.9135 8.58879 22.5 10.5222 22.5 12.5C22.497 15.1512 21.4425 17.6931 19.5678 19.5678C17.693 21.4425 15.1512 22.497 12.5 22.5Z" fill="white"/>
</svg>
